# xmcd CD database file
#
# Track frame offsets:
#	150
#	15582
#	28859
#	38446
#	48070
#	57774
#	68726
#	82303
#	93065
#	107977
#	115865
#	128326
#	143262
#	155564
#	163071
#	171413
#	188592
#
# Disc length: 2608 seconds
#
# Revision: 2
# Processed by: cddbd v1.5.2PL0 Copyright (c) Steve Scherf et al.
# Submitted via: CDex 1.78
#
DISCID=ce0a2e11
DTITLE=Mickey Gilley - Stand By Me Disc 1
DYEAR=2011
DGENRE=Country
TTITLE0=Intro
TTITLE1=I'm the One Mama Warned You About
TTITLE2=True Love Ways
TTITLE3=Talk to Me
TTITLE4=Put Your Dreams Away
TTITLE5=That's All That Matters
TTITLE6=Don't the Girls Get Prettier at Closing Time
TTITLE7=You Don't Know Me
TTITLE8=I Didn't Know Your Memory Loved Jamaica
TTITLE9=Urban Cowboy Band Introduction
TTITLE10=A Headache Tomorrow (or a Heartache Tonight)
TTITLE11=One O'clock Jump
TTITLE12=Room Full of Roses - I Overlooked an Orchid
TTITLE13=Window Up Above
TTITLE14=Great Balls of Fire
TTITLE15=Doo-Wah Days
TTITLE16=Honky Tonk Wine
EXTD=YEAR: 2011
EXTT0=
EXTT1=
EXTT2=
EXTT3=
EXTT4=
EXTT5=
EXTT6=
EXTT7=
EXTT8=
EXTT9=
EXTT10=
EXTT11=
EXTT12=
EXTT13=
EXTT14=
EXTT15=
EXTT16=
PLAYORDER=
